<?xml version="1.0" encoding="UTF-8" standalone="no"?>
<!-- Created with Inkscape (http://www.inkscape.org/) -->

<svg
   width="128"
   height="128"
   viewBox="0 0 33.866666 33.866666"
   version="1.1"
   id="svg1"
   sodipodi:docname="favicon.svg"
   inkscape:version="1.4 (e7c3feb100, 2024-10-09)"
   xmlns:inkscape="http://www.inkscape.org/namespaces/inkscape"
   xmlns:sodipodi="http://sodipodi.sourceforge.net/DTD/sodipodi-0.dtd"
   xmlns="http://www.w3.org/2000/svg"
   xmlns:svg="http://www.w3.org/2000/svg">
  <sodipodi:namedview
     id="namedview1"
     pagecolor="#ffffff"
     bordercolor="#000000"
     borderopacity="0.25"
     inkscape:showpageshadow="2"
     inkscape:pageopacity="0.0"
     inkscape:pagecheckerboard="0"
     inkscape:deskcolor="#d1d1d1"
     inkscape:zoom="9.7734375"
     inkscape:cx="64.051159"
     inkscape:cy="64.051159"
     inkscape:window-width="3406"
     inkscape:window-height="1371"
     inkscape:window-x="0"
     inkscape:window-y="0"
     inkscape:window-maximized="1"
     inkscape:current-layer="layer1" />
  <defs
     id="defs1" />
  <g
     id="layer1">
    <path
       id="text3"
       style="font-style:normal;font-variant:normal;font-weight:normal;font-stretch:normal;font-size:17.4539px;font-family:Monospace;-inkscape-font-specification:Monospace;text-align:start;writing-mode:lr-tb;direction:ltr;text-anchor:start;opacity:1;fill:#efe5cc;fill-opacity:1;stroke:none;stroke-width:0.529;stroke-linecap:square"
       d="M 6.4435342 3.0055012 C 5.442844 3.0055012 4.6340302 3.261432 4.0173258 3.773413 C 3.4122573 4.2737581 2.9700542 5.0010454 2.6907918 5.9551919 C 2.4115294 6.8977025 2.2722127 8.0434567 2.2722127 9.3932249 C 2.2722127 11.406241 2.6037358 12.982847 3.266984 14.123169 C 3.9302322 15.251854 4.9890426 15.816605 6.4435342 15.816605 C 7.4558604 15.816605 8.2706082 15.560675 8.8873127 15.048694 C 9.5040171 14.536713 9.9516375 13.803491 10.2309 12.849345 C 10.510162 11.883562 10.649996 10.731357 10.649996 9.3932249 C 10.649996 7.3685726 10.312539 5.7979007 9.6376544 4.6808511 C 8.9744063 3.5638016 7.9096618 3.0055012 6.4435342 3.0055012 z M 27.387992 3.0055012 C 26.387302 3.0055012 25.579005 3.261432 24.9623 3.773413 C 24.357232 4.2737581 23.915029 5.0010454 23.635766 5.9551919 C 23.356504 6.8977025 23.21667 8.0434567 23.21667 9.3932249 C 23.21667 11.406241 23.548193 12.982847 24.211442 14.123169 C 24.87469 15.251854 25.9335 15.816605 27.387992 15.816605 C 28.400318 15.816605 29.215066 15.560675 29.83177 15.048694 C 30.448475 14.536713 30.896612 13.803491 31.175874 12.849345 C 31.455137 11.883562 31.594453 10.731357 31.594453 9.3932249 C 31.594453 7.3685726 31.256996 5.7979007 30.582112 4.6808511 C 29.918864 3.5638016 28.854119 3.0055012 27.387992 3.0055012 z M 16.86357 3.1796508 L 13.390397 4.9428507 L 14.070975 6.1293415 L 15.519466 5.3789997 C 15.822 5.2277326 16.048777 5.1170526 16.200044 5.047237 C 16.351312 4.9774214 16.520299 4.8904777 16.706473 4.7857543 C 16.694838 5.1697401 16.677552 5.6583821 16.65428 6.2518147 C 16.642644 6.8336113 16.63671 7.3686922 16.63671 7.8574014 L 16.63671 14.420308 L 14.018782 14.594458 L 14.018782 15.641939 L 20.773409 15.641939 L 20.773409 14.594458 L 18.137911 14.420308 L 18.137911 3.1796508 L 16.86357 3.1796508 z M 6.4435342 4.3842284 C 7.1300543 4.3842284 7.6883546 4.6050716 8.1188841 5.047237 L 3.9827026 12.046293 C 3.901251 11.685579 3.83701 11.284397 3.7904662 10.842232 C 3.7555584 10.388431 3.738273 9.905206 3.738273 9.3932249 C 3.738273 7.6943787 3.9536989 6.4379446 4.3842284 5.6234293 C 4.8147579 4.797278 5.5010236 4.3842284 6.4435342 4.3842284 z M 27.387992 4.3842284 C 28.074512 4.3842284 28.633329 4.6050716 29.063858 5.047237 L 24.92716 12.046293 C 24.845709 11.685579 24.781984 11.284397 24.735441 10.842232 C 24.700533 10.388431 24.682731 9.905206 24.682731 9.3932249 C 24.682731 7.6943787 24.898157 6.4379446 25.328686 5.6234293 C 25.759216 4.797278 26.445481 4.3842284 27.387992 4.3842284 z M 8.8873127 6.4259642 C 9.1200313 7.1939358 9.2361286 8.1830879 9.2361286 9.3932249 C 9.2361286 11.115343 9.0093513 12.389579 8.55555 13.215731 C 8.1017486 14.030246 7.3976807 14.437361 6.4435342 14.437361 C 5.6755626 14.437361 5.0762407 14.152277 4.6457112 13.582116 L 8.8873127 6.4259642 z M 29.83177 6.4259642 C 30.064489 7.1939358 30.181103 8.1830879 30.181103 9.3932249 C 30.181103 11.115343 29.953809 12.389579 29.500008 13.215731 C 29.046206 14.030246 28.342138 14.437361 27.387992 14.437361 C 26.62002 14.437361 26.021215 14.152277 25.590686 13.582116 L 29.83177 6.4259642 z " />
    <path
       id="text3-4"
       style="font-style:normal;font-variant:normal;font-weight:normal;font-stretch:normal;font-size:17.4539px;font-family:Monospace;-inkscape-font-specification:Monospace;text-align:start;writing-mode:lr-tb;direction:ltr;text-anchor:start;fill:#efe5cc;fill-opacity:1;stroke:none;stroke-width:0.529;stroke-linecap:square"
       d="M 17.217037 18.286222 C 16.216346 18.286222 15.407533 18.542153 14.790828 19.054134 C 14.18576 19.554479 13.743557 20.281766 13.464294 21.235913 C 13.185032 22.178423 13.045198 23.324177 13.045198 24.673946 C 13.045198 26.686962 13.377238 28.263568 14.040486 29.403889 C 14.703735 30.532575 15.762545 31.097326 17.217037 31.097326 C 18.229363 31.097326 19.043594 30.841395 19.660298 30.329414 C 20.277003 29.817433 20.72514 29.084212 21.004402 28.130065 C 21.283665 27.164283 21.423498 26.012078 21.423498 24.673946 C 21.423498 22.649293 21.086041 21.078621 20.411157 19.961572 C 19.747909 18.844522 18.683164 18.286222 17.217037 18.286222 z M 6.6920979 18.460372 L 3.2189249 20.223571 L 3.8995035 21.410062 L 5.3485106 20.65972 C 5.6510449 20.508453 5.8778221 20.397773 6.0290892 20.327958 C 6.1803564 20.258142 6.3488266 20.171198 6.5350015 20.066475 C 6.5233656 20.450461 6.5060802 20.939103 6.4828083 21.532535 C 6.4711724 22.114332 6.4652383 22.649413 6.4652383 23.138122 L 6.4652383 29.701029 L 3.8473103 29.875178 L 3.8473103 30.92266 L 10.601937 30.92266 L 10.601937 29.875178 L 7.9664386 29.701029 L 7.9664386 18.460372 L 6.6920979 18.460372 z M 27.637072 18.460372 L 24.163382 20.223571 L 24.844478 21.410062 L 26.292968 20.65972 C 26.595502 20.508453 26.82228 20.397773 26.973547 20.327958 C 27.124814 20.258142 27.293801 20.171198 27.479976 20.066475 C 27.46834 20.450461 27.450538 20.939103 27.427266 21.532535 C 27.41563 22.114332 27.410213 22.649413 27.410213 23.138122 L 27.410213 29.701029 L 24.791768 29.875178 L 24.791768 30.92266 L 31.546394 30.92266 L 31.546394 29.875178 L 28.910896 29.701029 L 28.910896 18.460372 L 27.637072 18.460372 z M 17.217037 19.664949 C 17.903557 19.664949 18.461857 19.885792 18.892387 20.327958 L 14.755688 27.327014 C 14.674237 26.9663 14.610512 26.565118 14.563969 26.122953 C 14.529061 25.669151 14.511775 25.185927 14.511775 24.673946 C 14.511775 22.975099 14.726685 21.718665 15.157214 20.90415 C 15.587744 20.077999 16.274526 19.664949 17.217037 19.664949 z M 19.660298 21.707202 C 19.893017 22.475173 20.009631 23.463809 20.009631 24.673946 C 20.009631 26.396064 19.782854 27.6703 19.329052 28.496451 C 18.875251 29.310967 18.171183 29.718082 17.217037 29.718082 C 16.449065 29.718082 15.849743 29.432998 15.419214 28.862837 L 19.660298 21.707202 z " />
  </g>
</svg>
